<?xml version="1.0" standalone="no"?>
<!DOCTYPE svg PUBLIC "-//W3C//DTD SVG 20010904//EN"
        "http://www.w3.org/TR/2001/REC-SVG-20010904/DTD/svg10.dtd">
<!--<svg version="1.0" xmlns="http://www.w3.org/2000/svg"-->
<!--     width="512.000000pt" height="512.000000pt" viewBox="0 0 512.000000 512.000000"-->
<!--     preserveAspectRatio="xMidYMid meet">-->

<!--    <g transform="translate(0.000000,512.000000) scale(0.100000,-0.100000)"-->
<!--       fill="#000000" stroke="none">-->
<!--        <path d="M2315 5109 c-800 -83 -1501 -518 -1927 -1196 -604 -960 -491 -2229-->
<!--272 -3065 423 -463 951 -740 1585 -830 119 -17 512 -16 635 1 622 86 1148 360-->
<!--1572 820 349 378 572 861 650 1406 17 118 17 512 0 630 -59 417 -190 767 -410-->
<!--1099 -92 140 -185 254 -315 385 -399 404 -893 653 -1462 737 -123 18 -478 26-->
<!-- -600 13z m530 -394 c464 -66 879 -264 1210 -577 358 -338 589 -792 660 -1293-->
<!--17 -117 19 -413 5 -535 -52 -424 -224 -824 -499 -1151 -350 -418 -859 -692-->
<!-- -1411 -759 -109 -13 -392 -13 -500 0 -1008 124 -1788 904 -1910 1910 -14 122-->
<!-- -12 418 5 535 66 470 266 885 588 1222 331 346 781 575 1272 648 123 18 455-->
<!--18 580 0z"/>-->
<!--        <path d="M2335 3650 c-417 -90 -742 -398 -853 -808 -24 -88 -26 -114 -26 -282-->
<!--0 -168 2 -194 26 -282 105 -387 409 -691 797 -796 87 -24 113 -26 281 -26 168-->
<!--0 194 2 282 26 387 105 691 409 796 796 24 88 26 114 26 282 0 168 -2 194 -26-->
<!--282 -105 388 -411 693 -796 795 -135 36 -374 42 -507 13z m410 -386 c249 -66-->
<!--454 -272 521 -524 25 -91 25 -263 0 -358 -64 -252 -276 -464 -528 -528 -98-->
<!-- -25 -258 -25 -356 0 -252 64 -464 276 -528 528 -25 96 -25 267 0 358 75 279-->
<!--303 488 588 540 70 12 228 4 303 -16z"/>-->
<!--    </g>-->
<!--</svg>-->
<svg xmlns="http://www.w3.org/2000/svg" width="512" height="512" viewBox="0 0 512 512">
<circle cx="256" cy="256" r="230" fill="black" />
</svg>
